<?xml version="1.0" encoding="UTF-8"?>
<!DOCTYPE svg PUBLIC "-//W3C//DTD SVG 1.1//EN" "http://www.w3.org/Graphics/SVG/1.1/DTD/svg11.dtd">
<!-- Creator: CorelDRAW (Evaluation Version) -->
<svg xmlns="http://www.w3.org/2000/svg" xml:space="preserve" width="0.599185in" height="0.369063in" version="1.1" style="shape-rendering:geometricPrecision; text-rendering:geometricPrecision; image-rendering:optimizeQuality; fill-rule:evenodd; clip-rule:evenodd"
viewBox="0 0 468.05 288.29"
 xmlns:xlink="http://www.w3.org/1999/xlink"
 xmlns:xodm="http://www.corel.com/coreldraw/odm/2003">
 <defs>
  <style type="text/css">
   <![CDATA[
    .str1 {stroke:#3E4095;stroke-width:9.23;stroke-miterlimit:2.61313}
    .str0 {stroke:#3E4095;stroke-width:2.34;stroke-miterlimit:2.61313}
    .fil1 {fill:none}
    .fil0 {fill:#3E4095}
   ]]>
  </style>
 </defs>
 <g id="Layer_x0020_1">
  <metadata id="CorelCorpID_0Corel-Layer"/>
  <g id="_1772199472416">
   <path class="fil0 str0" d="M130.78 246.38c-3.83,8.05 -9.18,15.01 -16.04,20.87 -15.57,13.22 -36.39,19.87 -62.47,19.87 -6.26,0 -14.57,-0.51 -24.95,-1.6 -10.44,-1.09 -19.16,-2.36 -26.14,-3.83l0 -34.63 2.13 0c5.32,1.73 11.9,3.58 19.69,5.43 7.78,1.85 15.84,2.81 24.02,2.81 11.91,0 21.49,-1.34 28.54,-3.96 7.05,-2.62 12.31,-6.33 15.7,-11.18 3.52,-4.99 5.72,-11.12 6.72,-18.34 0.85,-6.22 1.32,-13.24 1.43,-21.05 7.66,17.27 18.36,32.73 31.38,45.61zm-31.35 -171.33l0 -41.01 -61.41 0 0 -29.58 100 0 0 18.35c-16.29,14.05 -29.56,31.89 -38.59,52.24zm38.59 -6.72l0 139.23c-13.3,-19.53 -21.18,-43.61 -21.18,-69.62 0,-26.01 7.88,-50.09 21.18,-69.61zm72.52 186.29l0 -180.51 36.66 0 0 179.48c-6.84,1.46 -13.91,2.23 -21.14,2.23 -5.27,0 -10.44,-0.42 -15.52,-1.2zm256.34 32.37l-148.29 0 0 -37.96c17.09,-16.04 30.47,-36.42 38.58,-59.49l0 64.49 109.71 0 0 32.97zm-148.29 -86.56l0 -124.96c10.56,18.13 16.68,39.56 16.68,62.48 0,22.92 -6.12,44.35 -16.68,62.48zm0 -173.56l0 -18.57 38.58 0 0 78.06c-8.11,-23.07 -21.49,-43.45 -38.58,-59.49z"/>
   <path class="fil1 str1" d="M226.05 4.61c68.58,0 124.52,59.9 124.52,133.33 0,73.44 -55.94,133.34 -124.52,133.34 -68.58,0 -124.52,-59.9 -124.52,-133.34 0,-73.44 55.94,-133.33 124.52,-133.33z"/>
  </g>
 </g>
</svg>
